<svg xmlns="http://www.w3.org/2000/svg" xmlns:xlink="http://www.w3.org/1999/xlink" zoomAndPan="magnify" preserveAspectRatio="xMidYMid meet" version="1.0" viewBox="-81 -81 972 972"><defs><clipPath id="1657053af1"><path d="M 231 304 L 596.605469 304 L 596.605469 510 L 231 510 Z M 231 304 " clip-rule="nonzero"/></clipPath></defs><rect x="-81" width="972" fill="#ffffff" y="-80.999999" height="971.999992" fill-opacity="1"/><rect x="-81" width="972" fill="#ffffff" y="-80.999999" height="971.999992" fill-opacity="1"/><g clip-path="url(#1657053af1)"><path fill="#0851c2" d="M 546.898438 421.230469 L 596.621094 470.953125 L 587.742188 479.832031 C 567.671875 499.914062 541.308594 509.945312 514.933594 509.945312 C 488.566406 509.945312 462.203125 499.914062 442.132812 479.832031 L 433.257812 470.953125 L 451.011719 453.195312 L 459.890625 462.074219 C 487.230469 489.414062 529.988281 492.125 560.402344 470.234375 L 545.933594 455.765625 C 508.789062 480.152344 456.5625 452.273438 457.179688 407.019531 C 456.5625 361.769531 508.765625 333.890625 545.933594 358.273438 L 560.402344 343.808594 C 529.617188 321.566406 485.972656 324.816406 458.835938 353.03125 C 444.792969 367.601562 437.085938 386.707031 437.085938 407.019531 C 437.085938 434.554688 426.382812 460.390625 406.941406 479.832031 C 366.792969 519.980469 301.460938 519.980469 261.308594 479.832031 C 221.160156 439.679688 221.160156 374.347656 261.308594 334.195312 C 305.25 290.011719 376.441406 295.988281 415.820312 343.074219 L 366.085938 392.808594 L 357.207031 383.933594 C 325.574219 354.472656 281.570312 398.464844 311.03125 430.109375 C 323.765625 442.828125 344.476562 442.828125 357.207031 430.109375 L 366.085938 421.230469 L 383.84375 438.988281 L 374.964844 447.863281 C 352.441406 470.386719 315.796875 470.386719 293.277344 447.863281 C 245.726562 397.640625 306.445312 322.917969 365.109375 358.273438 L 379.589844 343.792969 C 300.957031 290.410156 213.375 392.308594 279.066406 462.074219 C 309.425781 492.433594 358.828125 492.433594 389.1875 462.074219 C 403.871094 447.390625 411.96875 427.847656 411.96875 407.070312 C 411.96875 379.511719 422.667969 353.648438 442.121094 334.210938 L 451.550781 325.882812 C 496.1875 290.769531 559.808594 299.429688 596.621094 343.101562 L 546.898438 392.824219 C 546.898438 392.824219 538.019531 383.945312 538.019531 383.945312 C 518.132812 363.386719 481.820312 378.433594 482.285156 407.035156 C 481.886719 435.671875 517.988281 450.613281 538.019531 430.121094 Z M 546.898438 421.230469 " fill-opacity="1" fill-rule="nonzero"/></g></svg>