<svg xmlns="http://www.w3.org/2000/svg" xmlns:xlink="http://www.w3.org/1999/xlink" width="1080" zoomAndPan="magnify" viewBox="0 0 810 809.999993" height="1080" preserveAspectRatio="xMidYMid meet" version="1.0"><defs><clipPath id="c38e3994d6"><path d="M 86.25 0 L 723.75 0 C 771.382812 0 810 38.617188 810 86.25 L 810 729.265625 C 810 776.898438 771.382812 815.515625 723.75 815.515625 L 86.25 815.515625 C 38.617188 815.515625 0 776.898438 0 729.265625 L 0 86.25 C 0 38.617188 38.617188 0 86.25 0 Z M 86.25 0 " clip-rule="nonzero"/></clipPath><clipPath id="c9b618b7cd"><path d="M 113 238 L 726.445312 238 L 726.445312 584 L 113 584 Z M 113 238 " clip-rule="nonzero"/></clipPath></defs><g clip-path="url(#c38e3994d6)"><rect x="-81" width="972" fill="#0851c2" y="-80.999999" height="971.999992" fill-opacity="1"/></g><g clip-path="url(#c9b618b7cd)"><path fill="#a4d8ef" d="M 642.90625 434.96875 L 726.269531 518.332031 L 711.382812 533.21875 C 677.738281 566.886719 633.535156 583.710938 589.3125 583.710938 C 545.109375 583.710938 500.910156 566.886719 467.261719 533.21875 L 452.378906 518.332031 L 482.148438 488.5625 L 497.03125 503.449219 C 542.871094 549.285156 614.558594 553.832031 665.546875 517.125 L 641.289062 492.871094 C 579.015625 533.757812 491.453125 487.011719 492.488281 411.144531 C 491.453125 335.277344 578.972656 288.535156 641.289062 329.421875 L 665.546875 305.164062 C 613.933594 267.878906 540.757812 273.328125 495.265625 320.632812 C 471.722656 345.058594 458.796875 377.089844 458.796875 411.144531 C 458.796875 457.308594 440.851562 500.625 408.261719 533.21875 C 340.945312 600.53125 231.414062 600.53125 164.097656 533.21875 C 96.78125 465.902344 96.78125 356.367188 164.097656 289.054688 C 237.765625 214.972656 357.125 224.992188 423.148438 303.9375 L 339.761719 387.320312 L 324.878906 372.4375 C 271.84375 323.042969 198.066406 396.800781 247.460938 449.855469 C 268.808594 471.179688 303.53125 471.179688 324.878906 449.855469 L 339.761719 434.96875 L 369.53125 464.738281 L 354.648438 479.625 C 316.886719 517.386719 255.453125 517.386719 217.691406 479.625 C 137.96875 395.421875 239.769531 270.140625 338.125 329.421875 L 362.402344 305.144531 C 230.570312 215.640625 83.730469 386.480469 193.867188 503.449219 C 244.769531 554.347656 327.59375 554.347656 378.492188 503.449219 C 403.113281 478.828125 416.683594 446.0625 416.683594 411.230469 C 416.683594 365.027344 434.628906 321.664062 467.242188 289.074219 L 483.050781 275.117188 C 557.882812 216.246094 664.554688 230.761719 726.269531 303.980469 L 642.90625 387.34375 C 642.90625 387.34375 628.019531 372.457031 628.019531 372.457031 C 594.675781 337.992188 533.800781 363.21875 534.578125 411.167969 C 533.910156 459.183594 594.4375 484.234375 628.019531 449.875 Z M 642.90625 434.96875 " fill-opacity="1" fill-rule="nonzero"/></g></svg>